<?xml version="1.0" encoding="UTF-8" standalone="no"?>
<!-- Created with Inkscape (http://www.inkscape.org/) -->

<svg
   xmlns:dc="http://purl.org/dc/elements/1.1/"
   xmlns:cc="http://creativecommons.org/ns#"
   xmlns:rdf="http://www.w3.org/1999/02/22-rdf-syntax-ns#"
   xmlns:svg="http://www.w3.org/2000/svg"
   xmlns="http://www.w3.org/2000/svg"
   xmlns:xlink="http://www.w3.org/1999/xlink"
   xmlns:sodipodi="http://sodipodi.sourceforge.net/DTD/sodipodi-0.dtd"
   xmlns:inkscape="http://www.inkscape.org/namespaces/inkscape"
   width="210mm"
   height="297mm"
   viewBox="0 0 210 297"
   version="1.1"
   id="svg8"
   inkscape:version="0.92.3 (2405546, 2018-03-11)"
   sodipodi:docname="beach-ball.svg">
  <sodipodi:namedview
     id="base"
     pagecolor="#ffffff"
     bordercolor="#666666"
     borderopacity="1.0"
     inkscape:pageopacity="0.0"
     inkscape:pageshadow="2"
     inkscape:zoom="0.24748737"
     inkscape:cx="-184.82283"
     inkscape:cy="1159.2548"
     inkscape:document-units="mm"
     inkscape:current-layer="layer1"
     showgrid="false"
     inkscape:window-width="1920"
     inkscape:window-height="1018"
     inkscape:window-x="0"
     inkscape:window-y="28"
     inkscape:window-maximized="1"
     showborder="false" />
  <defs
     id="defs2">
    <linearGradient
       inkscape:collect="always"
       id="linearGradient1893">
      <stop
         style="stop-color:#5cecff;stop-opacity:1;"
         offset="0"
         id="stop1889" />
      <stop
         style="stop-color:#5cecff;stop-opacity:0;"
         offset="1"
         id="stop1891" />
    </linearGradient>
    <linearGradient
       inkscape:collect="always"
       id="linearGradient1885">
      <stop
         style="stop-color:#5cecff;stop-opacity:1;"
         offset="0"
         id="stop1881" />
      <stop
         style="stop-color:#5cecff;stop-opacity:0;"
         offset="1"
         id="stop1883" />
    </linearGradient>
    <linearGradient
       inkscape:collect="always"
       xlink:href="#linearGradient1885"
       id="linearGradient1887"
       x1="-179.16072"
       y1="125.02082"
       x2="338.66667"
       y2="125.02082"
       gradientUnits="userSpaceOnUse"
       gradientTransform="translate(12.85119,19.654762)" />
    <radialGradient
       inkscape:collect="always"
       xlink:href="#linearGradient1893"
       id="radialGradient1897"
       cx="61.020119"
       cy="-173.8331"
       fx="61.020119"
       fy="-173.8331"
       r="262.24115"
       gradientTransform="matrix(0.87028028,-0.00576532,0.00293202,0.44259032,8.1777659,42.450091)"
       gradientUnits="userSpaceOnUse" />
  </defs>
  <metadata
     id="metadata5">
    <rdf:RDF>
      <cc:Work
         rdf:about="">
        <dc:format>image/svg+xml</dc:format>
        <dc:type
           rdf:resource="http://purl.org/dc/dcmitype/StillImage" />
        <dc:title />
      </cc:Work>
    </rdf:RDF>
  </metadata>
  <g
     inkscape:label="Layer 1"
     inkscape:groupmode="layer"
     id="layer1">
    <g
       inkscape:export-ydpi="90"
       inkscape:export-xdpi="90"
       inkscape:export-filename="/home/pedrosilva/beach-scene.png"
       id="g1907"
       transform="translate(-261.37386,-259.01928)"
       style="fill:#ffffff;fill-opacity:0.43137255;stroke:none">
      <path
         inkscape:connector-curvature="0"
         style="color:#000000;font-style:normal;font-variant:normal;font-weight:normal;font-stretch:normal;font-size:medium;line-height:normal;font-family:sans-serif;font-variant-ligatures:normal;font-variant-position:normal;font-variant-caps:normal;font-variant-numeric:normal;font-variant-alternates:normal;font-feature-settings:normal;text-indent:0;text-align:start;text-decoration:none;text-decoration-line:none;text-decoration-style:solid;text-decoration-color:#000000;letter-spacing:normal;word-spacing:normal;text-transform:none;writing-mode:lr-tb;direction:ltr;text-orientation:mixed;dominant-baseline:auto;baseline-shift:baseline;text-anchor:start;white-space:normal;shape-padding:0;clip-rule:nonzero;display:inline;overflow:visible;visibility:visible;opacity:0.15;isolation:auto;mix-blend-mode:normal;color-interpolation:sRGB;color-interpolation-filters:linearRGB;solid-color:#000000;solid-opacity:1;vector-effect:none;fill:#ffffff;fill-opacity:0.43137255;fill-rule:nonzero;stroke:none;stroke-width:0.5291667;stroke-linecap:butt;stroke-linejoin:miter;stroke-miterlimit:4;stroke-dasharray:none;stroke-dashoffset:0;stroke-opacity:1;paint-order:normal;color-rendering:auto;image-rendering:auto;shape-rendering:auto;text-rendering:auto;enable-background:accumulate"
         d="m 313.28176,113.55415 c -14.39616,0 -26.06831,11.63533 -26.06831,25.98544 0,13.85139 10.87565,25.17318 24.57829,25.94353 0.49338,0.0277 0.98968,0.0434 1.49002,0.0434 14.39615,0 26.07033,-11.63685 26.07033,-25.98696 0,-8.88532 -4.47664,-16.72855 -11.303,-21.41457 l 9.9e-4,-9.7e-4 c -0.008,-0.005 -0.0157,-0.01 -0.0234,-0.0147 -3.81041,-2.60987 -8.35077,-4.23602 -13.25352,-4.51179 v -0.002 c -0.003,-1.7e-4 -0.005,9.8e-4 -0.008,9.8e-4 -0.49105,-0.0275 -0.98551,-0.0429 -1.48343,-0.0429 z"
         id="path1903" />
      <path
         id="path1905"
         d="m 314.83776,113.28896 c -0.0148,0.0226 -0.0382,0.0663 -0.0625,0.13332 -0.0507,0.1395 -0.10756,0.36325 -0.16846,0.65732 -0.12184,0.58811 -0.25892,1.46449 -0.40307,2.5983 -0.0425,0.3339 -0.0868,0.73544 -0.13075,1.11311 1.9007,0.1321 3.64007,0.73923 5.03639,1.68 1.07795,-0.69693 2.1125,-1.25665 3.0887,-1.66967 1.25894,-0.53265 2.42574,-0.82549 3.46387,-0.8568 0.4568,-0.0138 0.88694,0.026 1.29088,0.11524 -3.56908,-2.17072 -7.69602,-3.51474 -12.11503,-3.77082 z m -12.36927,2.57348 c -0.42972,0.003 -0.82213,0.0922 -1.17305,0.27182 l -0.003,-0.005 c -4.32184,2.21663 -7.94942,5.59412 -10.47327,9.72034 2.16558,-2.27399 5.75275,-3.47948 10.08983,-3.61218 0.34053,-0.0105 0.68602,-0.0144 1.03559,-0.0114 0.92879,0.007 1.89063,0.0658 2.87528,0.1664 0.7129,-1.39774 1.92349,-2.57895 3.4463,-3.39876 -1.19256,-1.07741 -2.32645,-1.90463 -3.3569,-2.43396 -0.90372,-0.46422 -1.72373,-0.70101 -2.44016,-0.69712 z m 19.77916,7.78712 c 0.14551,0.5338 0.22479,1.08811 0.22479,1.65882 0,0.96118 -0.21992,1.87853 -0.61702,2.72231 5.5045,3.07472 9.91783,6.91367 12.72377,10.81278 2.53561,3.52346 3.76366,7.1056 3.27629,10.20919 1.13674,-2.94271 1.76113,-6.14015 1.76113,-9.48417 0,-2.66716 -0.39805,-5.24124 -1.13533,-7.66723 l -0.005,0.002 c -0.75367,-2.47614 -2.66516,-4.50305 -5.46788,-5.93245 -2.79932,-1.42764 -6.48432,-2.25331 -10.76058,-2.32131 z m -17.8201,3.63182 c -2.66131,1.1258 -5.17782,2.48651 -7.42901,4.04782 -3.51975,2.44113 -6.12374,5.18384 -7.65483,7.93233 -1.53109,2.74848 -1.99132,5.49752 -1.23765,7.97367 l -0.004,0.001 c 1.60262,5.2738 4.81471,9.84555 9.06559,13.1439 -0.7429,-1.12875 -1.0746,-2.733 -1.0082,-4.69636 0.0925,-2.73241 0.94918,-6.17258 2.55385,-10.04951 2.03201,-4.90942 5.07219,-10.04478 8.57363,-14.61875 -1.36258,-0.96829 -2.37536,-2.26007 -2.85925,-3.73414 z m 13.60898,4.4881 c -1.38644,0.68879 -3.01145,1.08469 -4.74596,1.08469 -0.1703,0 -0.33939,-0.004 -0.50746,-0.0119 -0.44928,6.62829 -0.82375,13.78145 -1.03198,19.88561 -0.13953,4.09058 -0.19493,7.40003 -0.16743,9.68571 0.0138,1.14285 0.05,2.02904 0.10387,2.62723 0.0269,0.29909 0.058,0.52845 0.0925,0.67283 0.004,0.0185 0.007,0.0217 0.0124,0.0372 4.67878,0.25182 9.43173,-0.67564 13.55938,-2.78433 0.89741,-0.4964 1.466,-1.57293 1.70326,-3.14192 0.2431,-1.60767 0.13593,-3.71571 -0.30541,-6.16914 -0.88268,-4.90688 -3.09207,-11.19732 -6.41615,-17.69142 -0.74415,-1.45379 -1.51349,-2.85315 -2.29702,-4.19458 z"
         style="color:#000000;font-style:normal;font-variant:normal;font-weight:normal;font-stretch:normal;font-size:medium;line-height:normal;font-family:sans-serif;font-variant-ligatures:normal;font-variant-position:normal;font-variant-caps:normal;font-variant-numeric:normal;font-variant-alternates:normal;font-feature-settings:normal;text-indent:0;text-align:start;text-decoration:none;text-decoration-line:none;text-decoration-style:solid;text-decoration-color:#000000;letter-spacing:normal;word-spacing:normal;text-transform:none;writing-mode:lr-tb;direction:ltr;text-orientation:mixed;dominant-baseline:auto;baseline-shift:baseline;text-anchor:start;white-space:normal;shape-padding:0;clip-rule:nonzero;display:inline;overflow:visible;visibility:visible;opacity:1;isolation:auto;mix-blend-mode:normal;color-interpolation:sRGB;color-interpolation-filters:linearRGB;solid-color:#000000;solid-opacity:1;vector-effect:none;fill:#ffffff;fill-opacity:0.43137255;fill-rule:nonzero;stroke:none;stroke-width:0.26458332;stroke-linecap:butt;stroke-linejoin:miter;stroke-miterlimit:4;stroke-dasharray:none;stroke-dashoffset:0;stroke-opacity:1;color-rendering:auto;image-rendering:auto;shape-rendering:auto;text-rendering:auto;enable-background:accumulate"
         inkscape:connector-curvature="0" />
    </g>
    <rect
       inkscape:export-ydpi="90"
       inkscape:export-xdpi="90"
       inkscape:export-filename="/home/pedrosilva/beach-scene.png"
       y="-271.88815"
       x="-300.41095"
       height="459.98077"
       width="744.26453"
       id="rect1909"
       style="opacity:1;fill:#ffffff;fill-opacity:1;stroke:none;stroke-width:10.58333302;stroke-linecap:round;stroke-linejoin:round;stroke-miterlimit:4;stroke-dasharray:none;stroke-dashoffset:0;stroke-opacity:1;paint-order:normal" />
    <path
       style="opacity:1;fill:url(#radialGradient1897);fill-opacity:1;stroke:none;stroke-width:0.52916664;stroke-linecap:round;stroke-linejoin:round;stroke-miterlimit:4;stroke-dasharray:none;stroke-dashoffset:0;stroke-opacity:1;paint-order:normal"
       d="m -177.46696,5.1416678 c 15.10241,-15.1024102 38.38082,3.2415779 64.0741,0 22.018987,-2.7780129 62.636049,-63.3219628 83.722838,-40.5808068 3.85702,4.159623 -4.842625,0.207243 -8.556038,14.710736 -1.605448,6.270406 -5.309919,14.4508534 -1.121397,19.3856018 13.289945,15.6576812 45.7533539,3.2890915 61.270076,6.484469 40.722865,8.3861092 83.156961,0.4273883 124.732141,0 44.61638,-0.4586515 89.21395,-3.404143 133.82792,-2.7517635 18.42349,0.2694023 45.54164,-7.4082296 55.20783,2.7517635 9.66619,10.1599932 6.80357,170.2282022 0,177.0317722 -21.54464,21.54464 -60.94514,-0.68499 -91.40616,0 -27.4605,0.61752 -57.34332,3.82873 -82.31902,3.70417 -24.97569,-0.12456 -44.86765,-3.8204 -67.351917,-3.70417 -18.92711,0.0978 -36.133311,3.60712 -56.66114,3.70417 -20.52783,0.097 -44.1541542,-3.75822 -66.282843,-3.70417 -20.349916,0.0497 -40.142829,3.67771 -60.937452,3.70417 -20.794618,0.0265 -42.379828,-3.08654 -63.610148,-3.70417 -8.1928,-0.23834 -18.79316,5.79564 -24.58879,0 -6.80357,-6.80357 -6.80357,-170.228201 0,-177.0317722 z"
       id="rect1868"
       inkscape:connector-curvature="0"
       sodipodi:nodetypes="ssasasaazssssssssss" />
    <g
       transform="translate(-261.37386,-259.01928)"
       id="g1866"
       inkscape:export-filename="/home/pedrosilva/beach-scene.png"
       inkscape:export-xdpi="90"
       inkscape:export-ydpi="90">
      <path
         id="path1862"
         d="m 313.28176,113.55415 c -14.39616,0 -26.06831,11.63533 -26.06831,25.98544 0,13.85139 10.87565,25.17318 24.57829,25.94353 0.49338,0.0277 0.98968,0.0434 1.49002,0.0434 14.39615,0 26.07033,-11.63685 26.07033,-25.98696 0,-8.88532 -4.47664,-16.72855 -11.303,-21.41457 l 9.9e-4,-9.7e-4 c -0.008,-0.005 -0.0157,-0.01 -0.0234,-0.0147 -3.81041,-2.60987 -8.35077,-4.23602 -13.25352,-4.51179 v -0.002 c -0.003,-1.7e-4 -0.005,9.8e-4 -0.008,9.8e-4 -0.49105,-0.0275 -0.98551,-0.0429 -1.48343,-0.0429 z"
         style="color:#000000;font-style:normal;font-variant:normal;font-weight:normal;font-stretch:normal;font-size:medium;line-height:normal;font-family:sans-serif;font-variant-ligatures:normal;font-variant-position:normal;font-variant-caps:normal;font-variant-numeric:normal;font-variant-alternates:normal;font-feature-settings:normal;text-indent:0;text-align:start;text-decoration:none;text-decoration-line:none;text-decoration-style:solid;text-decoration-color:#000000;letter-spacing:normal;word-spacing:normal;text-transform:none;writing-mode:lr-tb;direction:ltr;text-orientation:mixed;dominant-baseline:auto;baseline-shift:baseline;text-anchor:start;white-space:normal;shape-padding:0;clip-rule:nonzero;display:inline;overflow:visible;visibility:visible;opacity:0.15;isolation:auto;mix-blend-mode:normal;color-interpolation:sRGB;color-interpolation-filters:linearRGB;solid-color:#000000;solid-opacity:1;vector-effect:none;fill:#ffffff;fill-opacity:1;fill-rule:nonzero;stroke:#ff6158;stroke-width:0.5291667;stroke-linecap:butt;stroke-linejoin:miter;stroke-miterlimit:4;stroke-dasharray:none;stroke-dashoffset:0;stroke-opacity:1;paint-order:normal;color-rendering:auto;image-rendering:auto;shape-rendering:auto;text-rendering:auto;enable-background:accumulate"
         inkscape:connector-curvature="0" />
      <path
         inkscape:connector-curvature="0"
         style="color:#000000;font-style:normal;font-variant:normal;font-weight:normal;font-stretch:normal;font-size:medium;line-height:normal;font-family:sans-serif;font-variant-ligatures:normal;font-variant-position:normal;font-variant-caps:normal;font-variant-numeric:normal;font-variant-alternates:normal;font-feature-settings:normal;text-indent:0;text-align:start;text-decoration:none;text-decoration-line:none;text-decoration-style:solid;text-decoration-color:#000000;letter-spacing:normal;word-spacing:normal;text-transform:none;writing-mode:lr-tb;direction:ltr;text-orientation:mixed;dominant-baseline:auto;baseline-shift:baseline;text-anchor:start;white-space:normal;shape-padding:0;clip-rule:nonzero;display:inline;overflow:visible;visibility:visible;opacity:1;isolation:auto;mix-blend-mode:normal;color-interpolation:sRGB;color-interpolation-filters:linearRGB;solid-color:#000000;solid-opacity:1;vector-effect:none;fill:#ff6158;fill-opacity:1;fill-rule:nonzero;stroke:none;stroke-width:0.26458332;stroke-linecap:butt;stroke-linejoin:miter;stroke-miterlimit:4;stroke-dasharray:none;stroke-dashoffset:0;stroke-opacity:1;color-rendering:auto;image-rendering:auto;shape-rendering:auto;text-rendering:auto;enable-background:accumulate"
         d="m 314.83776,113.28896 c -0.0148,0.0226 -0.0382,0.0663 -0.0625,0.13332 -0.0507,0.1395 -0.10756,0.36325 -0.16846,0.65732 -0.12184,0.58811 -0.25892,1.46449 -0.40307,2.5983 -0.0425,0.3339 -0.0868,0.73544 -0.13075,1.11311 1.9007,0.1321 3.64007,0.73923 5.03639,1.68 1.07795,-0.69693 2.1125,-1.25665 3.0887,-1.66967 1.25894,-0.53265 2.42574,-0.82549 3.46387,-0.8568 0.4568,-0.0138 0.88694,0.026 1.29088,0.11524 -3.56908,-2.17072 -7.69602,-3.51474 -12.11503,-3.77082 z m -12.36927,2.57348 c -0.42972,0.003 -0.82213,0.0922 -1.17305,0.27182 l -0.003,-0.005 c -4.32184,2.21663 -7.94942,5.59412 -10.47327,9.72034 2.16558,-2.27399 5.75275,-3.47948 10.08983,-3.61218 0.34053,-0.0105 0.68602,-0.0144 1.03559,-0.0114 0.92879,0.007 1.89063,0.0658 2.87528,0.1664 0.7129,-1.39774 1.92349,-2.57895 3.4463,-3.39876 -1.19256,-1.07741 -2.32645,-1.90463 -3.3569,-2.43396 -0.90372,-0.46422 -1.72373,-0.70101 -2.44016,-0.69712 z m 19.77916,7.78712 c 0.14551,0.5338 0.22479,1.08811 0.22479,1.65882 0,0.96118 -0.21992,1.87853 -0.61702,2.72231 5.5045,3.07472 9.91783,6.91367 12.72377,10.81278 2.53561,3.52346 3.76366,7.1056 3.27629,10.20919 1.13674,-2.94271 1.76113,-6.14015 1.76113,-9.48417 0,-2.66716 -0.39805,-5.24124 -1.13533,-7.66723 l -0.005,0.002 c -0.75367,-2.47614 -2.66516,-4.50305 -5.46788,-5.93245 -2.79932,-1.42764 -6.48432,-2.25331 -10.76058,-2.32131 z m -17.8201,3.63182 c -2.66131,1.1258 -5.17782,2.48651 -7.42901,4.04782 -3.51975,2.44113 -6.12374,5.18384 -7.65483,7.93233 -1.53109,2.74848 -1.99132,5.49752 -1.23765,7.97367 l -0.004,0.001 c 1.60262,5.2738 4.81471,9.84555 9.06559,13.1439 -0.7429,-1.12875 -1.0746,-2.733 -1.0082,-4.69636 0.0925,-2.73241 0.94918,-6.17258 2.55385,-10.04951 2.03201,-4.90942 5.07219,-10.04478 8.57363,-14.61875 -1.36258,-0.96829 -2.37536,-2.26007 -2.85925,-3.73414 z m 13.60898,4.4881 c -1.38644,0.68879 -3.01145,1.08469 -4.74596,1.08469 -0.1703,0 -0.33939,-0.004 -0.50746,-0.0119 -0.44928,6.62829 -0.82375,13.78145 -1.03198,19.88561 -0.13953,4.09058 -0.19493,7.40003 -0.16743,9.68571 0.0138,1.14285 0.05,2.02904 0.10387,2.62723 0.0269,0.29909 0.058,0.52845 0.0925,0.67283 0.004,0.0185 0.007,0.0217 0.0124,0.0372 4.67878,0.25182 9.43173,-0.67564 13.55938,-2.78433 0.89741,-0.4964 1.466,-1.57293 1.70326,-3.14192 0.2431,-1.60767 0.13593,-3.71571 -0.30541,-6.16914 -0.88268,-4.90688 -3.09207,-11.19732 -6.41615,-17.69142 -0.74415,-1.45379 -1.51349,-2.85315 -2.29702,-4.19458 z"
         id="path1864" />
    </g>
  </g>
</svg>
